<svg id="Layer_1" data-name="Layer 1" xmlns="http://www.w3.org/2000/svg" width="16" height="16" viewBox="0 0 16 16"><title>ic_folder</title><g id="_16px_folder-18" data-name=" 16px folder-18"><g id="Group_856" data-name="Group 856"><path id="Path_575" data-name="Path 575" d="M14.8,7.31A.88.88,0,0,0,14.1,7H4.5a.8.8,0,0,0-.8.51L1.1,13.77A.85.85,0,0,0,1.9,15h9.6a.8.8,0,0,0,.8-.51l2.6-6.26A.77.77,0,0,0,14.8,7.31Z" style="fill:#ffbf5e"/><path id="Path_576" data-name="Path 576" d="M2,7c.4-1,.9-1,2-1h8V4a1.08,1.08,0,0,0-1-1H7L5.1,1.3A.71.71,0,0,0,4.5,1H1.9a.82.82,0,0,0-.9.8V10Z" style="fill:#ffda9a"/></g></g><rect width="16" height="16" style="fill:#fff;opacity:0"/></svg>