<svg width="66" height="67" viewBox="0 0 66 67" fill="none" xmlns="http://www.w3.org/2000/svg">
<g clip-path="url(#clip0_1848_10423)">
<path d="M44 44.75L33 33.75L22 44.75" stroke="#193F7D" stroke-width="5.5" stroke-linecap="round" stroke-linejoin="round"/>
<path d="M33 33.75V58.5" stroke="#193F7D" stroke-width="5.5" stroke-linecap="round" stroke-linejoin="round"/>
<path d="M56.0725 51.3216C58.7547 49.8594 60.8736 47.5455 62.0947 44.7453C63.3158 41.9451 63.5696 38.818 62.8161 35.8575C62.0626 32.897 60.3446 30.2718 57.9334 28.3961C55.5221 26.5204 52.5549 25.5011 49.5 25.4991H46.035C45.2026 22.2795 43.6512 19.2905 41.4974 16.7568C39.3435 14.2231 36.6433 12.2107 33.5998 10.8708C30.5562 9.53085 27.2485 8.89834 23.9253 9.02078C20.6021 9.14322 17.3499 10.0174 14.4132 11.5777C11.4766 13.1379 8.93177 15.3436 6.97022 18.029C5.00868 20.7143 3.68141 23.8093 3.08821 27.0814C2.495 30.3535 2.6513 33.7176 3.54535 36.9206C4.4394 40.1236 6.04793 43.0822 8.25001 45.5741" stroke="#193F7D" stroke-width="5.5" stroke-linecap="round" stroke-linejoin="round"/>
<path d="M44 44.75L33 33.75L22 44.75" stroke="#193F7D" stroke-width="5.5" stroke-linecap="round" stroke-linejoin="round"/>
</g>
<defs>
<clipPath id="clip0_1848_10423">
<rect width="66" height="66" fill="white" transform="translate(0 0.75)"/>
</clipPath>
</defs>
</svg>
