<?xml version="1.0" encoding="utf-8"?>
<!-- Generator: Adobe Illustrator 25.3.1, SVG Export Plug-In . SVG Version: 6.00 Build 0)  -->
<svg version="1.1" id="Layer_1" xmlns="http://www.w3.org/2000/svg" xmlns:xlink="http://www.w3.org/1999/xlink" x="0px" y="0px"
	 viewBox="0 0 18.8 18.7" style="enable-background:new 0 0 18.8 18.7;" xml:space="preserve">
<style type="text/css">
	.st0{fill:#D7181F;}
</style>
<path class="st0" d="M18.6,0.2H5.5c-3.2,0-4.9,2.5-4.9,5.5s1.7,5.5,4.9,5.5c2.3,0,4.8,0,7.2,0c1,0,1.9,0.8,1.9,1.9s-0.8,1.9-1.9,1.9
	H2.1l-1.9,3.6h13.1c3.2,0,4.9-2.5,4.9-5.5s-1.7-5.5-4.9-5.5c-2.3,0-4.8,0-7.2,0c-1,0-1.9-0.8-1.9-1.9s0.9-1.8,1.9-1.8h10.6L18.6,0.2
	z"/>
</svg>
