<?xml version="1.0" encoding="utf-8"?>
<!-- Generator: Adobe Illustrator 26.2.1, SVG Export Plug-In . SVG Version: 6.00 Build 0)  -->
<svg version="1.1" id="Layer_1" xmlns:xodm="http://www.corel.com/coreldraw/odm/2003"
	 xmlns="http://www.w3.org/2000/svg" xmlns:xlink="http://www.w3.org/1999/xlink" x="0px" y="0px" viewBox="0 0 400 136"
	 style="enable-background:new 0 0 400 136;" xml:space="preserve">
<style type="text/css">
	.st0{fill:none;}
	.st1{fill-rule:evenodd;clip-rule:evenodd;fill:#FFFFFF;}
</style>
<g id="_2294580332064">
	<polygon class="st0" points="-0.2,0 400.2,0 400.2,136 -0.2,136 	"/>
	<g>
		<path class="st1" d="M122.9,67c10.1-0.4,18.2,7.8,18.2,17.4c0,9.7-7.8,17.5-17.5,17.5H91c-1.6,1.8-3.3,5.1-8,6.4h40.6
			c13.2,0,23.9-10.7,23.9-23.8c0-11.4-8-20.9-18.7-23.3c-3-19-19.4-33.5-39.2-33.5c-19.6,0-35.9,14.2-39.1,32.9
			c-12.7,0.5-22.9,11-22.9,23.8c0,13.2,10.7,23.8,23.8,23.8c38.5,0,29.8-0.9,49.1-36.6c-7,0.7-8.1,1.7-9.7,4.6
			c-0.2,0.4-0.5,0.9-0.7,1.3c-11.8,23.6-8.2,24.3-38.7,24.3c-9.7,0-17.5-7.8-17.5-17.5S41.6,67,51.3,67c1.7,0,3.3,0.2,4.9,0.7
			c0-18.4,14.9-33.6,33.4-33.6C107.8,34.1,122.7,48.8,122.9,67L122.9,67z"/>
		<path class="st1" d="M51.4,108.3C70,107,67.3,100.8,82.8,72c-7,0.7-8.1,1.7-9.7,4.6c-0.2,0.4-0.5,0.9-0.7,1.3
			c-8.8,17.6-8.8,22.7-21.1,24L51.4,108.3L51.4,108.3z"/>
	</g>
	<g>
		<path class="st1" d="M287.4,54.8c-0.2,0-0.3,0.2-0.7,1l-6.1,12.5c-1.5,3-2.7,4.5,2.1,4.2h9.4c4.8,0.3,3.6-1.2,2.1-4.2l-6.1-12.5
			C287.8,55,287.6,54.8,287.4,54.8z M277.9,81.6c-4.6,0-3.5-0.3-5.6,4c-2.8,5.7-1.3,5.1-7.5,5.1c-6.6,0-5.8,0.9-2.8-5.1l18.5-36.9
			c1.6-3.2,1.9-3.4,7-3.5c5.1,0.1,5.4,0.3,7,3.5L313,85.6c3,6,3.7,5.1-2.8,5.1c-6.3,0-4.7,0.6-7.5-5.1c-2.1-4.3-0.9-4-5.6-4H277.9
			L277.9,81.6z"/>
		<path class="st1" d="M189.7,59l-10.2,21.2c-0.4,0.8-0.5,1-0.7,1s-0.3-0.2-0.7-1l-10-20.7c-7.2-14.9-5.7-14.2-11.9-14.2
			c-6.6,0-5.8-0.9-2.8,5.1l18.5,36.9c1.6,3.2,1.9,3.4,7,3.5c5.1-0.1,5.4-0.3,7-3.5l18.5-36.9c3-6,3.7-5.1-2.8-5.1
			C195.1,45.3,196.6,44.7,189.7,59L189.7,59z"/>
		<path class="st1" d="M252.4,85.1c0,3.1-2.5,5.6-5.6,5.6h-3.5V50.9c0-3.1,2.5-5.6,5.6-5.6l0,0l0,0h3.5
			C252.4,58.5,252.4,71.8,252.4,85.1L252.4,85.1z"/>
		<path class="st1" d="M231.1,54.3c-3.1,0-5.6-2.5-5.6-5.6v-3.5h39.1c3.1,0,5.6,2.5,5.6,5.6l0,0l0,0v3.5
			C256.9,54.3,244.4,54.3,231.1,54.3z"/>
		<path class="st1" d="M356.6,59l-9.3,21.2c-0.4,0.8-0.5,1-0.7,1s-0.3-0.2-0.7-1L336.5,59c-6.2-12.7-5.7-13.7-9.8-13.7
			c0,0-0.5,0-0.6,0l0,0c-3.1,0-5.6,2.5-5.6,5.6v39.8h3.5c3.1,0,5.6-2.5,5.6-5.6V65l9.9,22.2c1.6,3.2,1.9,3.4,7,3.5
			c5.1-0.1,5.4-0.3,7-3.5l9.9-22.2v20.1c0,3.1,2.5,5.6,5.6,5.6h3.5V50.9c0-3.1-2.5-5.6-5.6-5.6l0,0c-0.1,0-0.6,0-0.6,0
			C362.3,45.4,362.7,46.3,356.6,59L356.6,59z"/>
		<path class="st1" d="M220.1,85.1c0,3.1-2.5,5.6-5.6,5.6H211V50.9c0-3.1,2.5-5.6,5.6-5.6l0,0l0,0h3.5
			C220.1,58.5,220.1,71.8,220.1,85.1L220.1,85.1z"/>
	</g>
</g>
</svg>
