<svg width="66" height="49" viewBox="0 0 66 49" fill="none" xmlns="http://www.w3.org/2000/svg">
<path d="M56.0725 45.3216C58.7547 43.8594 60.8736 41.5455 62.0947 38.7453C63.3158 35.9451 63.5696 32.818 62.8161 29.8575C62.0626 26.897 60.3446 24.2718 57.9334 22.3961C55.5221 20.5204 52.5549 19.5011 49.5 19.4991H46.035C45.2026 16.2795 43.6512 13.2905 41.4974 10.7568C39.3435 8.22314 36.6433 6.21069 33.5998 4.87077C30.5562 3.53085 27.2485 2.89834 23.9253 3.02078C20.6021 3.14322 17.3499 4.01743 14.4132 5.57768C11.4766 7.13794 8.93177 9.34363 6.97022 12.029C5.00868 14.7143 3.68141 17.8093 3.08821 21.0814C2.495 24.3535 2.6513 27.7176 3.54535 30.9206C4.4394 34.1236 6.04793 37.0822 8.25001 39.5741" stroke="#193F7D" stroke-width="5.5" stroke-linecap="round" stroke-linejoin="round"/>
</svg>
