<svg xmlns="http://www.w3.org/2000/svg" version="1.2" viewBox="0 0 512 512"><path fill="#FFF" d="M422.3 477.9c0 7.6-6.2 13.8-13.8 13.8h-305c-7.6 0-13.8-6.2-13.8-13.8V34.1c0-7.6 6.2-13.8 13.8-13.8h230.1V109h88.7v368.9z"/><path fill="#2B669F" d="M333.6 6H103.5C88 6 75.4 18.6 75.4 34.1v443.8c0 15.5 12.6 28.1 28.1 28.1h305c15.5 0 28.1-12.6 28.1-28.1V109.1L333.6 6zm88.7 471.9c0 7.6-6.2 13.8-13.8 13.8h-305c-7.6 0-13.8-6.2-13.8-13.8V34.1c0-7.6 6.2-13.8 13.8-13.8h230.1V109h88.7v368.9z"/><path fill="#084272" d="M333.6 6v103.1h103zM465.9 450.8H46.1V308c0-9.8 7.9-17.7 17.7-17.7h384.3c9.8 0 17.7 7.9 17.7 17.7v142.8z"/><path fill="#1A252D" d="M436.6 450.8v19.5l29.3-19.5zM75.4 450.8v19.5l-29.3-19.5z"/><path fill="#2B669F" d="M64.1 308.4h383.7v124.5H64.1zM298.3 78.6h-177a6.7 6.7 0 010-13.4h177a6.7 6.7 0 010 13.4zM298.3 110.6h-177a6.7 6.7 0 010-13.4h177a6.7 6.7 0 010 13.4zM391.8 142.5H121.3a6.7 6.7 0 010-13.4h270.5a6.7 6.7 0 010 13.4zM391.8 174.5H121.3a6.7 6.7 0 010-13.4h270.5a6.7 6.7 0 010 13.4zM391.8 206.5H121.3a6.7 6.7 0 010-13.4h270.5a6.7 6.7 0 010 13.4zM391.8 238.4H121.3a6.7 6.7 0 010-13.4h270.5a6.7 6.7 0 010 13.4zM391.8 270.4H121.3a6.7 6.7 0 010-13.4h270.5a6.7 6.7 0 010 13.4z"/><path fill="#FFF" d="M208.6 384.8H231v11.8h-41.9V388l21.9-28.9h-21v-11.8h40.4v8.3l-21.8 29.2zM261.2 335.9h-15.4v-10.3h15.4v10.3zm0 60.7h-15.4v-49.3h15.4v49.3zM322.8 373.1c0 7.4-1.7 13.4-5 17.8-3.3 4.5-8 6.7-14.1 6.7-2.4 0-4.5-.5-6.3-1.4-1.8-.9-3.4-2.2-4.8-4v23.3h-15.4v-68.2h14.5l.5 5.4c1.4-2 3-3.6 4.9-4.6 1.9-1.1 4.1-1.6 6.5-1.6 6.1 0 10.8 2.4 14.2 7.1 3.4 4.7 5 10.9 5 18.6v.9zm-15.3-1c0-4.2-.6-7.5-1.8-10-1.2-2.5-3.2-3.8-5.8-3.8-1.7 0-3.2.3-4.4 1-1.2.6-2.1 1.6-2.8 2.8v20.6c.7 1.1 1.7 1.9 2.9 2.4s2.7.8 4.4.8c2.7 0 4.6-1.1 5.8-3.3 1.2-2.2 1.8-5.4 1.8-9.4v-1.1z"/></svg>